<?xml version="1.0" encoding="UTF-8"?>
<!DOCTYPE svg PUBLIC "-//W3C//DTD SVG 1.1//EN" "http://www.w3.org/Graphics/SVG/1.1/DTD/svg11.dtd">
<svg xmlns="http://www.w3.org/2000/svg" version="1.1" width="512px" height="512px" style="shape-rendering:geometricPrecision; text-rendering:geometricPrecision; image-rendering:optimizeQuality; fill-rule:evenodd; clip-rule:evenodd" xmlns:xlink="http://www.w3.org/1999/xlink">
<g><path style="opacity:0.986" fill="#55bea5" d="M 243.5,41.5 C 329.668,40.4876 395.502,76.1543 441,148.5C 474.635,210.784 478.301,274.784 452,340.5C 419.215,411.163 364.382,453.329 287.5,467C 195.041,476.883 123.207,443.383 72,366.5C 62.2581,349.771 54.7581,332.104 49.5,313.5C 77.0872,324.696 104.754,335.696 132.5,346.5C 136.934,367.436 148.934,382.269 168.5,391C 195.789,400.22 218.956,394.053 238,372.5C 246.898,360.691 251.232,347.358 251,332.5C 274.833,315.333 298.667,298.167 322.5,281C 361.773,279.297 388.273,260.131 402,223.5C 410.989,185.793 399.822,155.627 368.5,133C 328.817,112.144 293.65,117.977 263,150.5C 251.047,165.69 245.047,183.023 245,202.5C 228.305,226.363 211.805,250.363 195.5,274.5C 181.479,274.877 168.646,278.877 157,286.5C 118.682,270.34 80.1817,254.673 41.5,239.5C 48.6903,168.246 82.0237,113.079 141.5,74C 172.986,55.0035 206.986,44.1701 243.5,41.5 Z M 320.5,160.5 C 347.255,160.698 362.255,174.032 365.5,200.5C 363.167,224.833 349.833,238.167 325.5,240.5C 301.611,237.444 288.278,223.944 285.5,200C 288.258,178.752 299.924,165.585 320.5,160.5 Z"/></g>
<g><path style="opacity:0.919" fill="#55bea5" d="M 317.5,146.5 C 344.849,144.584 364.349,155.917 376,180.5C 384.439,207.18 377.606,229.013 355.5,246C 328.348,260.543 304.181,256.71 283,234.5C 268.875,213.83 267.875,192.496 280,170.5C 289.254,157.297 301.754,149.297 317.5,146.5 Z M 320.5,160.5 C 299.924,165.585 288.258,178.752 285.5,200C 288.278,223.944 301.611,237.444 325.5,240.5C 349.833,238.167 363.167,224.833 365.5,200.5C 362.255,174.032 347.255,160.698 320.5,160.5 Z"/></g>
<g><path style="opacity:0.901" fill="#55bea5" d="M 185.5,289.5 C 220.437,290.603 237.27,308.603 236,343.5C 230.385,367.563 215.218,380.229 190.5,381.5C 171.772,380.645 158.106,371.978 149.5,355.5C 149.833,355.167 150.167,354.833 150.5,354.5C 160.793,358.764 171.127,362.931 181.5,367C 196.455,369.576 208.289,364.742 217,352.5C 226.044,333.315 221.877,317.815 204.5,306C 194.383,301.853 184.383,297.52 174.5,293C 178.161,291.407 181.828,290.241 185.5,289.5 Z"/></g>
</svg>
